<?xml version="1.0" encoding="utf-8"?>
<!-- Generator: Adobe Adobe Illustrator 24.2.0, SVG Export Plug-In . SVG Version: 6.00 Build 0)  -->
<svg version="1.1" id="Layer_1" xmlns="http://www.w3.org/2000/svg" xmlns:xlink="http://www.w3.org/1999/xlink" x="0px" y="0px"
	 width="3072px" height="1920px" viewBox="0 0 3072 1920" style="enable-background:new 0 0 3072 1920;" xml:space="preserve">
<style type="text/css">
	.st0{fill:#FFFFFF;stroke:#FFFFFF;stroke-miterlimit:10;}
	.st1{clip-path:url(#SVGID_2_);fill:none;stroke:#FFFFFF;stroke-miterlimit:10;}
	.st2{clip-path:url(#SVGID_2_);fill:#72DE1B;}
	.st3{clip-path:url(#SVGID_2_);fill:#C710B2;}
	.st4{clip-path:url(#SVGID_2_);fill:#10C4C7;}
	.st5{clip-path:url(#SVGID_2_);fill:#FDFDFE;}
	.st6{clip-path:url(#SVGID_2_);fill:#FDFEFE;}
	.st7{clip-path:url(#SVGID_2_);fill:#7C93BC;}
</style>
<rect x="0" class="st0" width="3072" height="1930"/>
<g>
	<defs>
		<rect id="SVGID_1_" x="-0.84" y="2" width="802.77" height="1916"/>
	</defs>
	<clipPath id="SVGID_2_">
		<use xlink:href="#SVGID_1_"  style="overflow:visible;"/>
	</clipPath>
	<path class="st1" d="M908.01,732.8c0,440.04,0,879.67,0,1319.29c-336.64,0-673.27,0-1009.91,0c0-735.79,0-1471.58,0-2207.38
		c336.64,0,673.27,0,1009.91,0C908.01,140.61,908.01,436.5,908.01,732.8z M611.31,1825.14c1.43-12.47,2.87-24.93,4.3-37.4
		c2.15-18.78,3.7-37.6,4.15-56.5c0.06-2.57-0.72-4.34-2.41-6.23c-3.14-3.5-6.19-7.13-8.76-11.05c-3.29-5.02-3.56-10.63-1.74-16.31
		c0.46-1.44,0.96-2.88,1.59-4.26c1.79-3.94,2.27-7.9,0.57-12c-0.37-0.89-0.52-1.86-0.79-2.78c-5.48-18.8-14.11-36.24-23.59-53.32
		c-6.51-11.73-13.23-23.36-19.45-35.24c-2.67-5.1-4.86-10.57-6.35-16.11c-2.02-7.54-1.14-14.82,4.98-20.68
		c0.78-0.74,1.35-1.7,1.94-2.47c-5.45-17.38-13.09-33.64-20.49-50c-0.57-1.25-1.92-2.33-3.15-3.1c-4.49-2.81-9.13-5.38-13.62-8.19
		c-39.17-24.49-75.03-53.14-108.9-84.25c-11.27-10.35-22.04-21.22-33.21-31.68c-15.63-14.64-31.48-29.05-47.09-43.72
		c-4.85-4.55-9.35-9.49-13.75-14.47c-3.02-3.42-5.51-7.29-8.39-10.83c-4.64-5.71-9.53-11.22-14.09-16.98
		c-28.23-35.73-54.23-73.02-79.31-110.93c-16.89-25.54-33.45-51.28-47.44-78.51c-1.54-3-3.56-4.07-6.73-4.51
		c-10.4-1.42-20.73-3.32-31.15-4.57c-4.45-0.53-6.42-2.44-7.58-6.59c-6.49-23.38-16.76-45.26-28.01-66.73
		c-6.42-12.25-12.93-24.45-19.3-36.72c-9.89-19.03-19.17-38.31-26.12-58.62c-7.29-21.31-10.58-43.16-8.46-65.57
		c2.43-25.7,7.72-50.93,13.9-76c2.62-10.63,7.54-19.8,15.25-27.59c5.18-5.24,10.34-10.49,15.64-15.61c1.72-1.67,2.6-3.34,2.51-5.77
		c-0.17-4.55-0.03-9.1-0.06-13.65c-0.01-1.05-0.2-2.09-0.33-3.36c-1.68,0-3.07,0-4.46,0c-8.97-0.02-17.94,0.14-26.91-0.12
		c-7.97-0.24-15.97-0.6-23.88-1.55c-9.61-1.15-16.1-5.95-18.37-15.96c-1.98-8.71-4.99-17.19-7.62-25.75
		c-0.77-2.5-1.86-4.9-2.69-7.39c-2.43-7.27-2.72-14.59-0.49-21.97c0.92-3.04,1.85-6.07,2.69-9.13
		c5.37-19.57,11.86-38.75,19.85-57.46c12.43-29.11,26.39-57.51,40.2-85.98c5.6-11.55,11.25-23.17,15.56-35.22
		c13.94-39.05,31.79-76.2,54.01-111.31c9.51-15.02,20.06-29.25,33.24-41.45c14.78-13.67,32.29-21.77,52.26-24.39
		c15.96-2.09,32.01-3.49,48.03-5.04c3.74-0.36,7.19-0.83,9.31-4.38c1.12-1.88,2.96-2.12,5.05-2.22c9.09-0.47,18.21-0.79,27.24-1.83
		c6.77-0.78,13.54-2.19,20.11-4.02c9.43-2.63,15.6-8.9,18.42-18.21c0.56-1.84,1.23-3.69,1.5-5.58c2.29-15.82,4.51-31.65,6.72-47.48
		c0.38-2.68,0.62-5.38,0.92-8.02c-5.87-1.36-7.5-2.61-9.98-7.69c-0.9-1.86-1.76-3.78-2.27-5.77c-1-3.86-2.02-7.76-2.56-11.7
		c-1.12-8.21-1.63-16.47-0.45-24.74c0.99-7,4.17-10.25,11.27-11.31c1.11-0.17,2.24-0.17,3.35-0.28c2.21-0.21,4.42-0.45,6.7-0.69
		c0.13-1.23,0.27-2.17,0.32-3.12c0.38-7.44,0.43-14.91,1.2-22.3c1.1-10.54,2.4-21.09,4.19-31.54c2.8-16.33,11.22-29.49,24.35-39.82
		c6.5-5.12,13.6-9.2,21.19-12.5c2.51-1.09,4.95-2.33,7.42-3.5c-0.07-0.34-0.13-0.67-0.2-1.01c-1.75-0.07-3.51-0.2-5.26-0.2
		c-49.33-0.11-98.66-0.28-147.99-0.28c-37,0-74,0.19-110.99,0.34c-12.9,0.05-25.73,0.71-38.45,3.25
		C68.65,17.43,21.43,63.33,6.2,116.16c-2.36,8.19-4.29,16.58-5.39,25.01c-0.99,7.62-0.74,15.42-0.76,23.14
		C-0.2,269.83-0.55,375.36-0.6,480.89c-0.15,340.72-0.24,681.44-0.24,1022.16c0,86.35,0.33,172.7,0.66,259.05
		c0.07,17.92,3.5,35.36,9.8,52.19c11.19,29.9,30.68,53.68,56.42,72.54c27.2,19.93,57.87,30.3,91.91,30.58
		c13.73,0.12,27.47,0.34,41.2,0.35c118.84,0.1,237.69,0.19,356.53,0.24c25.93,0.01,51.85-0.13,77.78-0.25
		c1.54-0.01,3.25,0.45,4.7-0.64c-0.24-0.41-0.31-0.72-0.51-0.86c-1.57-1.15-3.16-2.28-4.75-3.41c-11.57-8.28-19.36-19.11-22.16-33
		c-1.16-5.78-2-11.78-1.82-17.64C609.28,1850.08,610.42,1837.99,611.31,1825.14z M439.61,719.18c3.89,4.23,7.16,8.92,9.29,14.19
		c3.3,8.18,6.69,16.38,9.2,24.81c10.28,34.64,20.28,69.35,30.29,104.06c4.4,15.24,8.51,30.55,12.96,45.77
		c0.79,2.7,0.37,4.39-1.79,6.06c-1.86,1.45-3.4,3.29-5.22,4.8c-1.6,1.32-1.99,2.67-1.36,4.69c1.56,5,2.84,10.09,4.28,15.12
		c10.74,37.58,19.43,75.6,24.54,114.33c3.59,27.2,6.34,54.5,9.52,81.75c1.18,10.14,2.76,20.21,5.66,30.04
		c4.99,16.89,12.44,32.79,20.72,48.27c7.36,13.77,15.54,27.12,23.31,40.69c9.93,17.36,18.15,35.37,22.77,54.9
		c6.39,26.99,11.09,54.29,15.77,81.59c4.31,25.13,8.61,50.27,12.78,75.42c1.34,8.07,4.2,15.35,9.43,21.77
		c3.24,3.98,6.12,8.23,9.17,12.36c7.11,9.62,13.02,19.94,17.86,30.83c2.31,5.19,4,10.55,4.78,16.21c1.07,7.71-0.59,15.09-2.29,22.49
		c-3.95,17.19-8.69,34.22-10.93,51.76c-1.12,8.79-1.61,17.61-0.09,26.39c2.62,15.21,5.34,30.41,8.21,45.58
		c1.61,8.53,3.44,17.01,8.32,24.54c1.4,2.16,2.01,4.82,2.91,7.28c1.83,5.04,1.68,10.04-0.67,14.88c-1.35,2.78-1.37,5.4-0.39,8.34
		c5.8,17.4,11.62,34.81,17.1,52.31c5.17,16.54,8.44,33.45,7.84,50.87c-0.44,12.72-3.38,24.79-10.01,35.89
		c-6.09,10.2-14.44,18.21-24.13,25c-1.19,0.84-2.34,1.73-3.51,2.6c1.02,0.48,1.7,0.46,2.38,0.37c9.04-1.27,17.86-3.51,26.38-6.64
		c45.17-16.58,77.43-46.54,95.74-90.6c7.22-17.36,11.3-35.39,11.04-54.34c-0.23-16.69,0.33-33.38,0.34-50.07
		c0.11-223.74,0.19-447.49,0.27-671.23c0-1.01,0-2.02,0-3.03c-1.27,1.16-1.88,2.35-2.48,3.56c-5.01,10.2-10.61,20.08-17.71,29.01
		c-33.59,42.23-89.37,62.94-143.37,51.77c-37.73-7.81-67.57-27.61-89.41-58.47c-21.57-30.47-29.19-64.64-23.76-101.44
		c4.29-29.09,16.74-54.42,37.25-75.81c17.35-18.1,37.95-31.18,62.24-38.46c2.76-0.83,5.42-1.94,8.64-3.11
		c-1.78-4.37-3.25-8.35-4.99-12.22c-14.96-33.42-31.25-66.24-47.98-98.82c-8.28-16.12-14.15-32.9-18.03-50.51
		c-10.01-45.52-18.67-91.29-27.01-137.12c-0.67-3.66-1.38-7.31-2.26-10.93c-0.79-3.26-1.51-3.61-4.7-2.34
		c-2.2,0.87-4.32,1.95-6.41,3.06c-14.44,7.67-28.07,16.58-41.62,25.66c-7.24,4.85-12.5,10.92-15.36,19.03
		c-0.09,0.26-0.19,0.52-0.29,0.78c-13.38,33.45-26.62,66.96-40.24,100.32c-3.3,8.08-2.17,16.21-2.6,24.24
		C429.77,710.59,433.47,713.03,439.61,719.18z M639.78,526.31c0.07,12.69,0.07,25.38,0.26,38.07c0.04,2.86,0.5,5.75,1.12,8.55
		c1.68,7.67,3.82,15.26,5.3,22.97c3.79,19.76,7.35,39.57,10.94,59.37c2.3,12.68,5.84,24.91,11.77,36.48
		c5.67,11.07,11.01,22.31,16.34,33.54c9.11,19.19,16.03,39.09,19.43,60.05c2.01,12.38,3.38,24.86,5.51,37.22
		c1.33,7.72,3.52,15.3,5.39,22.92c0.79,3.21,2.82,5.11,6.19,5.98c5.41,1.39,10.69,3.24,16.08,4.7c7.33,1.98,12.95,5.73,15.24,13.27
		c0.65,2.15,2.25,3.27,4.23,4.25c5.24,2.6,10.39,5.4,15.56,8.14c5.32,2.81,8.23,7.42,9.48,13.02c0.83,3.72,2.48,6.96,4.39,10.2
		c4.29,7.26,8.38,14.64,12.55,21.97c0.42,0.74,0.86,1.48,1.29,2.22c0.52-1.57,0.52-2.94,0.52-4.31c0.09-41.93,0.24-83.87,0.27-125.8
		c0.13-156.29,0.32-312.58,0.29-468.87c-0.01-59.18-0.48-118.35-0.89-177.53c-0.07-10.75-1.01-21.41-4.13-31.88
		c-16.11-54.07-50.71-91.05-104.7-110.09c-14.42-5.09-29.28-8.17-44.77-8.18c-29.85,0-59.7-0.41-89.55-0.52
		c-20.6-0.08-41.2,0.02-61.8,0.11c-2.4,0.01-4.91-0.38-7.74,1c2.16,0.91,3.82,1.59,5.46,2.31c14.67,6.4,28.19,14.21,36.73,28.33
		c1.45,2.4,3.68,4.04,6.45,5.04c4.18,1.52,7.47,4.32,10.15,7.78c3.95,5.09,6.92,10.7,8.63,16.89c3.4,12.34,3.01,24.86,1.2,37.35
		c-1.82,12.52-6.25,24.26-11.65,35.68c-1.82,3.85-3.69,7.68-5.56,11.54c1.12,1.3,2.08,2.49,3.11,3.6c4.29,4.64,5.39,9.95,2.93,15.7
		c-1.95,4.56-4.16,9.03-6.59,13.35c-3.39,6.02-7.27,11.79-10.62,17.83c-3.03,5.47-7.03,9.6-13.34,11.1
		c-1.82,0.43-2.84,1.49-3.65,3.07c-2.27,4.43-4.65,8.81-7.02,13.18c-5.35,9.85-10.96,19.56-17.85,28.48
		c-4.35,5.64-9.14,10.82-15.84,13.89c-2.16,0.99-3.75,2.63-4.16,4.9c-0.69,3.77-1.24,7.59-1.47,11.41
		c-0.19,3.29,1.53,5.82,4.45,7.45c2.8,1.56,5.65,3.02,8.48,4.54c10.19,5.47,20.45,10.83,30.53,16.49c3.62,2.04,6.84,4.79,10.2,7.26
		c1.51,1.11,2.67,2.52,2.53,4.51c-0.24,3.41,1.85,5.06,4.46,6.79c15.42,10.28,30.75,20.69,46.04,31.15c3.1,2.12,5.99,4.55,8.85,6.98
		c21.6,18.34,35.76,41.45,44.66,67.88C635.07,466.15,638.9,495.59,639.78,526.31z M482.94,1948.64c-54.66,0-109.32,0-163.97,0
		c-54.43,0-108.85,0-163.28,0c0,0.2,0,0.4,0,0.59c163.29,0,326.57,0,489.86,0c0-0.2,0-0.4,0-0.59
		C591.63,1948.64,537.71,1948.64,482.94,1948.64z"/>
	<path class="st2" d="M611.27,1825.51c-0.85,12.47-2,24.57-2.36,36.68c-0.18,5.86,0.66,11.86,1.82,17.64
		c2.8,13.89,10.59,24.72,22.16,33c1.58,1.13,3.18,2.26,4.75,3.41c0.2,0.15,0.27,0.45,0.51,0.86c-1.45,1.09-3.16,0.63-4.7,0.64
		c-25.93,0.12-51.85,0.26-77.78,0.25c-118.84-0.05-237.69-0.13-356.53-0.24c-13.73-0.01-27.47-0.24-41.2-0.35
		c-34.04-0.29-64.71-10.65-91.91-30.58c-25.73-18.86-45.22-42.64-56.42-72.54c-6.3-16.83-9.73-34.27-9.8-52.19
		c-0.33-86.35-0.66-172.7-0.66-259.05c0-340.72,0.09-681.44,0.24-1022.16c0.05-105.53,0.4-211.05,0.66-316.58
		c0.02-7.72-0.23-15.52,0.76-23.14c1.1-8.43,3.03-16.82,5.39-25.01C21.43,63.33,68.65,17.43,128.41,5.5
		c12.71-2.54,25.55-3.2,38.45-3.25c37-0.14,74-0.34,110.99-0.34c49.33,0,98.66,0.17,147.99,0.28c1.75,0,3.51,0.13,5.26,0.2
		c0.07,0.34,0.13,0.67,0.2,1.01c-2.47,1.17-4.91,2.41-7.42,3.5c-7.59,3.31-14.69,7.38-21.19,12.5
		c-13.12,10.34-21.55,23.5-24.35,39.82c-1.79,10.45-3.09,20.99-4.19,31.54c-0.77,7.4-0.81,14.87-1.2,22.3
		c-0.05,0.95-0.19,1.9-0.32,3.12c-2.28,0.23-4.49,0.47-6.7,0.69c-1.12,0.11-2.25,0.11-3.35,0.28c-7.1,1.06-10.27,4.31-11.27,11.31
		c-1.18,8.28-0.67,16.53,0.45,24.74c0.54,3.94,1.55,7.84,2.56,11.7c0.52,1.99,1.37,3.91,2.27,5.77c2.48,5.09,4.12,6.33,9.98,7.69
		c-0.3,2.63-0.55,5.33-0.92,8.02c-2.21,15.83-4.43,31.66-6.72,47.48c-0.27,1.89-0.94,3.74-1.5,5.58
		c-2.82,9.32-8.99,15.58-18.42,18.21c-6.57,1.83-13.33,3.24-20.11,4.02c-9.03,1.04-18.15,1.35-27.24,1.83
		c-2.09,0.11-3.93,0.34-5.05,2.22c-2.12,3.55-5.57,4.02-9.31,4.38c-16.02,1.56-32.08,2.95-48.03,5.04
		c-19.97,2.61-37.49,10.72-52.26,24.39c-13.18,12.2-23.73,26.43-33.24,41.45c-22.22,35.11-40.07,72.26-54.01,111.31
		c-4.3,12.05-9.95,23.67-15.56,35.22C60.38,516,46.42,544.4,33.99,573.51C26,592.21,19.51,611.4,14.14,630.97
		c-0.84,3.06-1.77,6.09-2.69,9.13c-2.24,7.38-1.94,14.7,0.49,21.97c0.83,2.48,1.92,4.89,2.69,7.39c2.63,8.56,5.64,17.04,7.62,25.75
		c2.27,10.01,8.76,14.81,18.37,15.96c7.91,0.95,15.91,1.31,23.88,1.55c8.96,0.27,17.94,0.1,26.91,0.12c1.39,0,2.78,0,4.46,0
		c0.13,1.26,0.32,2.31,0.33,3.36c0.03,4.55-0.11,9.11,0.06,13.65c0.09,2.43-0.79,4.11-2.51,5.77c-5.3,5.12-10.46,10.37-15.64,15.61
		c-7.71,7.79-12.63,16.96-15.25,27.59c-6.18,25.07-11.48,50.3-13.9,76c-2.12,22.41,1.17,44.26,8.46,65.57
		c6.95,20.31,16.23,39.59,26.12,58.62c6.38,12.27,12.89,24.47,19.3,36.72c11.24,21.47,21.51,43.34,28.01,66.73
		c1.15,4.15,3.13,6.05,7.58,6.59c10.42,1.25,20.75,3.15,31.15,4.57c3.17,0.43,5.19,1.51,6.73,4.51c14,27.23,30.55,52.98,47.44,78.51
		c25.08,37.92,51.08,75.2,79.31,110.93c4.56,5.77,9.45,11.28,14.09,16.98c2.88,3.55,5.37,7.41,8.39,10.83
		c4.4,4.98,8.9,9.91,13.75,14.47c15.61,14.66,31.46,29.08,47.09,43.72c11.17,10.46,21.94,21.33,33.21,31.68
		c33.87,31.11,69.73,59.75,108.9,84.25c4.49,2.81,9.14,5.38,13.62,8.19c1.23,0.77,2.58,1.84,3.15,3.1
		c7.4,16.35,15.03,32.62,20.49,50c-0.59,0.77-1.16,1.72-1.94,2.47c-6.11,5.86-7,13.14-4.98,20.68c1.49,5.54,3.68,11.02,6.35,16.11
		c6.23,11.88,12.94,23.5,19.45,35.24c9.48,17.08,18.11,34.53,23.59,53.32c0.27,0.93,0.43,1.9,0.79,2.78c1.7,4.1,1.22,8.06-0.57,12
		c-0.63,1.38-1.13,2.82-1.59,4.26c-1.82,5.68-1.55,11.29,1.74,16.31c2.57,3.91,5.62,7.55,8.76,11.05c1.69,1.89,2.48,3.66,2.41,6.23
		c-0.46,18.9-2.01,37.72-4.15,56.5C614.18,1800.21,612.74,1812.67,611.27,1825.51z M197.49,1749.92c-0.3,0.03-0.6,0.06-1.02-0.56
		c-0.14-0.54-0.3-1.06-0.4-1.61c-4.61-25.08-9.22-50.15-13.83-75.23c-8.2-44.6-16.39-89.2-24.59-133.79
		c-0.64-3.49-1.37-6.96-2.03-10.33c-18.26,0-36.14,0-53.99,0c0,96.47,0,192.67,0,289.28c11.28-0.3,22.28,0.46,33.61-0.69
		c0-37.02,0.3-73.67-0.08-110.32c-0.38-36.64-1.45-73.27-2.22-109.9c0.17-0.04,0.34-0.07,0.5-0.11
		c13.85,73.58,27.7,147.17,41.53,220.62c7.98,0.87,46.91,0.53,49.76-0.38c0.87-9.51,0.44-285.6-0.42-288.48
		c-11.44,0-22.86,0-34.26,0C189.34,1602.54,192.82,1676.21,197.49,1749.92z M350.55,1800.09c6.87-9.1,10.87-19.18,10.88-30.65
		c0.01-19.99,0.04-39.98,0.02-59.97c0-1.92-0.12-3.87-0.47-5.76c-1.73-9.17-5.63-17.26-12.5-23.84c-1.55-1.48-3.03-3.04-4.72-4.73
		c1.53-1.39,2.66-2.42,3.78-3.45c9.36-8.55,13.75-19.21,13.9-31.68c0.2-16.4,0.62-32.81,0.58-49.21c-0.02-7.7-0.19-15.52-1.55-23.06
		c-3.5-19.31-14.49-32.7-34.32-37.51c-6.57-1.59-13.59-1.77-20.41-1.89c-16.66-0.29-33.34-0.17-50-0.2c-1.08,0-2.15,0.12-3.3,0.19
		c0,96.57,0,192.85,0,289.14c0.66,0.14,1.06,0.29,1.46,0.29c20.87-0.3,41.74-0.41,62.6-1.02
		C330.03,1816.35,341.3,1810.7,350.55,1800.09z M393.2,1664.04c-1.42,11.63-2.83,23.26-4.27,34.89c-2.12,17.1-4.3,34.19-6.4,51.3
		c-2.22,18.06-4.38,36.13-6.53,54.2c-0.5,4.21-0.81,8.44-1.24,12.92c13.26,0,26.05,0,39,0c0.21-1.32,0.45-2.38,0.54-3.46
		c1.43-16.62,2.84-33.25,4.24-49.87c0.41-4.87,0.42-4.99,5.52-5.04c8.97-0.09,17.94-0.07,26.91-0.08c0.95,0,1.89,0.16,3.16,0.28
		c1.68,19.45,3.34,38.76,5.04,58.46c13.94-0.12,27.32,0.33,41.14-0.79c-11.38-96.35-22.73-192.39-34.09-288.54
		c-18.99,0-37.45,0-56.01,0c-0.25,0.84-0.6,1.6-0.7,2.39c-2.03,16.28-4.05,32.56-6.05,48.84c-1.83,14.91-3.65,29.83-5.47,44.75
		C396.41,1637.29,394.85,1650.3,393.2,1664.04z"/>
	<path class="st3" d="M439.41,718.96c-5.94-5.93-9.64-8.37-17.48-11.53c0.43-8.04-0.7-16.16,2.6-24.24
		c13.61-33.36,26.86-66.86,40.24-100.32c0.1-0.26,0.2-0.52,0.29-0.78c2.87-8.11,8.12-14.17,15.36-19.03
		c13.55-9.08,27.19-17.99,41.62-25.66c2.09-1.11,4.21-2.19,6.41-3.06c3.19-1.26,3.91-0.92,4.7,2.34c0.88,3.61,1.6,7.27,2.26,10.93
		c8.35,45.83,17.01,91.6,27.01,137.12c3.87,17.61,9.75,34.39,18.03,50.51c16.74,32.58,33.02,65.4,47.98,98.82
		c1.73,3.87,3.21,7.84,4.99,12.22c-3.21,1.16-5.88,2.28-8.64,3.11c-24.29,7.27-44.89,20.36-62.24,38.46
		c-20.5,21.39-32.96,46.72-37.25,75.81c-5.43,36.81,2.2,70.97,23.76,101.44c21.84,30.86,51.68,50.66,89.41,58.47
		c54,11.17,109.77-9.54,143.37-51.77c7.1-8.93,12.7-18.81,17.71-29.01c0.59-1.2,1.2-2.4,2.48-3.56c0,1.01,0,2.02,0,3.03
		c-0.08,223.74-0.16,447.49-0.27,671.23c-0.01,16.69-0.57,33.38-0.34,50.07c0.26,18.95-3.82,36.98-11.04,54.34
		c-18.31,44.05-50.57,74.02-95.74,90.6c-8.52,3.13-17.34,5.37-26.38,6.64c-0.67,0.09-1.36,0.12-2.38-0.37
		c1.17-0.87,2.32-1.76,3.51-2.6c9.69-6.79,18.04-14.8,24.13-25c6.64-11.11,9.57-23.17,10.01-35.89c0.61-17.42-2.66-34.32-7.84-50.87
		c-5.48-17.5-11.3-34.9-17.1-52.31c-0.98-2.95-0.96-5.56,0.39-8.34c2.35-4.83,2.5-9.84,0.67-14.88c-0.89-2.46-1.51-5.12-2.91-7.28
		c-4.87-7.53-6.7-16.01-8.32-24.54c-2.87-15.17-5.59-30.37-8.21-45.58c-1.51-8.77-1.03-17.6,0.09-26.39
		c2.24-17.54,6.98-34.57,10.93-51.76c1.7-7.4,3.36-14.78,2.29-22.49c-0.78-5.66-2.48-11.03-4.78-16.21
		c-4.84-10.89-10.74-21.2-17.86-30.83c-3.05-4.13-5.93-8.38-9.17-12.36c-5.23-6.42-8.1-13.7-9.43-21.77
		c-4.17-25.16-8.48-50.29-12.78-75.42c-4.68-27.3-9.38-54.6-15.77-81.59c-4.62-19.53-12.84-37.55-22.77-54.9
		c-7.76-13.57-15.94-26.92-23.31-40.69c-8.28-15.48-15.73-31.39-20.72-48.27c-2.9-9.83-4.48-19.9-5.66-30.04
		c-3.17-27.25-5.93-54.55-9.52-81.75c-5.11-38.73-13.8-76.75-24.54-114.33c-1.44-5.04-2.72-10.12-4.28-15.12
		c-0.63-2.02-0.24-3.37,1.36-4.69c1.82-1.51,3.36-3.35,5.22-4.8c2.16-1.68,2.57-3.37,1.79-6.06c-4.45-15.22-8.56-30.54-12.96-45.77
		c-10.02-34.71-20.01-69.43-30.29-104.06c-2.5-8.43-5.89-16.63-9.2-24.81C446.77,728.1,443.5,723.41,439.41,718.96z"/>
	<path class="st4" d="M639.77,525.9c-0.87-30.31-4.7-59.75-14.31-88.26c-8.9-26.42-23.06-49.54-44.66-67.88
		c-2.86-2.43-5.75-4.86-8.85-6.98c-15.3-10.46-30.63-20.87-46.04-31.15c-2.6-1.74-4.7-3.39-4.46-6.79c0.14-1.99-1.02-3.4-2.53-4.51
		c-3.36-2.47-6.58-5.22-10.2-7.26c-10.08-5.66-20.34-11.02-30.53-16.49c-2.82-1.52-5.68-2.98-8.48-4.54
		c-2.92-1.63-4.64-4.16-4.45-7.45c0.22-3.82,0.78-7.64,1.47-11.41c0.41-2.27,2-3.91,4.16-4.9c6.69-3.07,11.48-8.25,15.84-13.89
		c6.89-8.92,12.5-18.62,17.85-28.48c2.38-4.37,4.75-8.75,7.02-13.18c0.81-1.58,1.83-2.64,3.65-3.07c6.32-1.49,10.31-5.63,13.34-11.1
		c3.35-6.04,7.23-11.81,10.62-17.83c2.43-4.32,4.65-8.79,6.59-13.35c2.46-5.75,1.36-11.06-2.93-15.7c-1.03-1.12-1.99-2.3-3.11-3.6
		c1.86-3.87,3.74-7.69,5.56-11.54c5.39-11.41,9.83-23.16,11.65-35.68c1.82-12.5,2.2-25.01-1.2-37.35c-1.7-6.19-4.68-11.8-8.63-16.89
		c-2.68-3.46-5.97-6.26-10.15-7.78c-2.77-1.01-5-2.64-6.45-5.04c-8.55-14.12-22.07-21.93-36.73-28.33c-1.64-0.72-3.3-1.39-5.46-2.31
		c2.83-1.38,5.34-0.99,7.74-1c20.6-0.09,41.2-0.19,61.8-0.11c29.85,0.12,59.7,0.52,89.55,0.52c15.49,0,30.35,3.09,44.77,8.18
		c53.99,19.05,88.59,56.03,104.7,110.09c3.12,10.47,4.06,21.13,4.13,31.88c0.41,59.17,0.88,118.35,0.89,177.53
		c0.03,156.29-0.16,312.58-0.29,468.87c-0.04,41.93-0.18,83.87-0.27,125.8c0,1.37,0,2.75-0.52,4.31c-0.43-0.74-0.87-1.48-1.29-2.22
		c-4.17-7.33-8.26-14.71-12.55-21.97c-1.91-3.24-3.56-6.48-4.39-10.2c-1.25-5.6-4.16-10.21-9.48-13.02
		c-5.17-2.74-10.32-5.53-15.56-8.14c-1.98-0.98-3.58-2.1-4.23-4.25c-2.29-7.54-7.91-11.29-15.24-13.27
		c-5.39-1.46-10.67-3.31-16.08-4.7c-3.37-0.87-5.41-2.76-6.19-5.98c-1.87-7.62-4.05-15.2-5.39-22.92
		c-2.13-12.36-3.51-24.84-5.51-37.22c-3.4-20.96-10.32-40.87-19.43-60.05c-5.33-11.23-10.66-22.47-16.34-33.54
		c-5.93-11.57-9.47-23.81-11.77-36.48c-3.59-19.8-7.15-39.61-10.94-59.37c-1.48-7.71-3.61-15.29-5.3-22.97
		c-0.61-2.8-1.08-5.69-1.12-8.55C639.85,551.69,639.85,539,639.77,525.9z"/>
	<path class="st5" d="M197.95,1749.82c-5.13-73.61-8.61-147.28-7.91-221.4c11.41,0,22.82,0,34.26,0
		c0.87,2.88,1.29,278.97,0.42,288.48c-2.85,0.91-41.79,1.24-49.76,0.38c-13.83-73.45-27.68-147.04-41.53-220.62
		c-0.17,0.04-0.34,0.07-0.5,0.11c0.77,36.63,1.84,73.26,2.22,109.9c0.38,36.65,0.08,73.3,0.08,110.32
		c-11.33,1.15-22.33,0.39-33.61,0.69c0-96.61,0-192.81,0-289.28c17.86,0,35.73,0,53.99,0c0.67,3.37,1.39,6.84,2.03,10.33
		c8.2,44.6,16.39,89.2,24.59,133.79c4.61,25.08,9.22,50.16,13.83,75.23c0.1,0.54,0.27,1.07,0.41,2.26c0.38,2.42,0.76,4.18,1.13,5.94
		c0.29-0.05,0.58-0.11,0.87-0.16C198.31,1753.81,198.13,1751.81,197.95,1749.82z"/>
	<path class="st6" d="M350.36,1800.32c-9.06,10.38-20.33,16.02-33.88,16.41c-20.86,0.6-41.73,0.71-62.6,1.02
		c-0.4,0.01-0.79-0.15-1.46-0.29c0-96.29,0-192.57,0-289.14c1.15-0.07,2.22-0.19,3.3-0.19c16.67,0.03,33.34-0.09,50,0.2
		c6.83,0.12,13.84,0.3,20.41,1.89c19.83,4.81,30.82,18.2,34.32,37.51c1.37,7.54,1.53,15.36,1.55,23.06
		c0.05,16.4-0.38,32.81-0.58,49.21c-0.15,12.48-4.54,23.13-13.9,31.68c-1.13,1.03-2.26,2.06-3.78,3.45
		c1.68,1.69,3.16,3.25,4.72,4.73c6.88,6.57,10.77,14.67,12.5,23.84c0.36,1.88,0.47,3.84,0.47,5.76c0.02,19.99-0.02,39.98-0.02,59.97
		C361.42,1780.91,357.42,1790.99,350.36,1800.32z M295.54,1659.94c5.72-0.29,11.49-0.26,17.16-0.95c6.13-0.75,9.87-5.4,9.87-11.38
		c0-18.75,0.02-37.5-0.06-56.24c-0.02-5.1-0.22-10.2-0.57-15.29c-0.37-5.45-3.85-9.2-9.25-10.25c-1.5-0.29-3.06-0.41-4.59-0.43
		c-5.41-0.05-10.82-0.02-16.64-0.02c0.03,31.33-0.08,62.8,0.21,94.33C293.07,1659.82,293.9,1659.88,295.54,1659.94z M310.61,1780.03
		c7.76-1.41,11.25-4.85,11.39-12.45c0.34-18.33,0.37-36.67,0.46-55.01c0.02-3.17-0.22-6.34-0.46-9.5c-0.4-5.2-3.33-8.75-8.5-9.99
		c-7.12-1.72-14.41-0.97-21.8-1.59c0,29.94,0,59.37,0,88.7C297.93,1780.17,303.91,1780.17,310.61,1780.03z"/>
	<path class="st5" d="M393.24,1663.67c1.61-13.37,3.17-26.37,4.76-39.37c1.81-14.92,3.64-29.83,5.47-44.75
		c2-16.28,4.01-32.56,6.05-48.84c0.1-0.8,0.45-1.56,0.7-2.39c18.56,0,37.02,0,56.01,0c11.36,96.16,22.71,192.19,34.09,288.54
		c-13.83,1.12-27.2,0.67-41.14,0.79c-1.7-19.7-3.36-39.01-5.04-58.46c-1.26-0.12-2.21-0.28-3.16-0.28c-8.97,0-17.94-0.02-26.91,0.08
		c-5.1,0.05-5.11,0.17-5.52,5.04c-1.4,16.62-2.82,33.25-4.24,49.87c-0.09,1.08-0.33,2.14-0.54,3.46c-12.94,0-25.73,0-39,0
		c0.42-4.48,0.74-8.71,1.24-12.92c2.14-18.07,4.31-36.14,6.53-54.2c2.1-17.1,4.28-34.2,6.4-51.3
		C390.38,1687.3,391.78,1675.67,393.24,1663.67z M425.37,1680.86c-1.11,14.63-2.75,29.24-3.32,44.18c9.97,1.01,19.4,0.86,28.79,0.18
		c0.85-6.99-13.19-157.97-15.15-163.73c-0.22,0.14-0.62,0.27-0.63,0.43C431.82,1601.31,428.61,1640.7,425.37,1680.86z"/>
	<path class="st7" d="M197.72,1749.87c0.41,1.94,0.59,3.94,0.77,5.93c-0.29,0.05-0.58,0.11-0.87,0.16
		c-0.38-1.76-0.75-3.52-1.07-5.61C196.89,1749.99,197.19,1749.95,197.72,1749.87z"/>
	<path class="st2" d="M295.13,1659.94c-1.23-0.06-2.06-0.12-3.47-0.23c-0.29-31.53-0.18-63-0.21-94.33c5.82,0,11.23-0.03,16.64,0.02
		c1.53,0.01,3.09,0.14,4.59,0.43c5.4,1.05,8.88,4.8,9.25,10.25c0.35,5.09,0.55,10.19,0.57,15.29c0.08,18.75,0.06,37.5,0.06,56.24
		c0,5.98-3.74,10.64-9.87,11.38C307.03,1659.68,301.26,1659.65,295.13,1659.94z"/>
	<path class="st2" d="M310.25,1780.1c-6.34,0.07-12.32,0.07-18.55,0.07c0-29.33,0-58.76,0-88.7c7.39,0.62,14.67-0.13,21.8,1.59
		c5.17,1.25,8.11,4.79,8.5,9.99c0.24,3.16,0.48,6.33,0.46,9.5c-0.09,18.34-0.13,36.68-0.46,55.01
		C321.86,1775.18,318.36,1778.62,310.25,1780.1z"/>
	<path class="st2" d="M425.39,1680.48c3.23-39.78,6.43-79.17,9.67-118.56c0.01-0.16,0.41-0.29,0.63-0.43
		c1.96,5.76,16,156.74,15.15,163.73c-9.39,0.69-18.82,0.84-28.79-0.18C422.61,1710.1,424.25,1695.5,425.39,1680.48z"/>
</g>
</svg>
