<?xml version="1.0" encoding="utf-8"?>
<!-- Generator: Adobe Adobe Illustrator 24.2.0, SVG Export Plug-In . SVG Version: 6.00 Build 0)  -->
<svg version="1.1" id="Layer_1" xmlns="http://www.w3.org/2000/svg" xmlns:xlink="http://www.w3.org/1999/xlink" x="0px" y="0px"
	 width="3072px" height="1920px" viewBox="0 0 3072 1920" style="enable-background:new 0 0 3072 1920;" xml:space="preserve">
<style type="text/css">
	.st0{fill:#FFFFFF;}
	.st1{fill:none;stroke:#FFFFFF;stroke-miterlimit:10;}
	.st2{fill:#72DE1B;}
	.st3{fill:#C710B2;}
	.st4{fill:#10C4C7;}
	.st5{fill:#F0E2E2;}
	.st6{fill:#FDFDFE;}
	.st7{fill:#FDFEFE;}
	.st8{fill:#7C93BC;}
</style>
<rect class="st0" width="3072" height="1920"/>
<g>
	<path class="st1" d="M905,728.42c0,431.82,0,863.23,0,1294.64c-325,0-650,0-975,0c0-722.04,0-1444.08,0-2166.12c325,0,650,0,975,0
		C905,147.3,905,437.66,905,728.42z M618.55,1800.35c1.38-12.23,2.77-24.46,4.15-36.7c2.07-18.43,3.57-36.9,4.01-55.45
		c0.06-2.52-0.7-4.26-2.33-6.11c-3.03-3.43-5.98-7-8.46-10.84c-3.18-4.93-3.44-10.43-1.68-16.01c0.45-1.42,0.93-2.83,1.54-4.18
		c1.73-3.87,2.19-7.75,0.55-11.78c-0.35-0.87-0.51-1.82-0.77-2.73c-5.29-18.45-13.62-35.57-22.78-52.33
		c-6.29-11.51-12.77-22.92-18.78-34.58c-2.58-5-4.7-10.37-6.13-15.81c-1.95-7.4-1.1-14.54,4.8-20.29c0.75-0.73,1.3-1.67,1.87-2.42
		c-5.26-17.05-12.63-33.02-19.78-49.06c-0.55-1.23-1.85-2.28-3.04-3.04c-4.33-2.76-8.82-5.28-13.15-8.04
		c-37.81-24.03-72.44-52.14-105.14-82.67c-10.88-10.16-21.28-20.82-32.06-31.09c-15.09-14.37-30.39-28.51-45.46-42.9
		c-4.68-4.47-9.03-9.31-13.27-14.2c-2.92-3.35-5.32-7.15-8.1-10.63c-4.48-5.6-9.2-11.01-13.6-16.67
		c-27.25-35.07-52.36-71.65-76.57-108.86c-16.31-25.06-32.29-50.32-45.8-77.04c-1.49-2.94-3.43-4-6.49-4.42
		c-10.04-1.39-20.01-3.26-30.07-4.49c-4.3-0.52-6.2-2.39-7.31-6.46c-6.27-22.94-16.18-44.41-27.04-65.48
		c-6.19-12.02-12.48-23.99-18.63-36.03c-9.55-18.67-18.51-37.6-25.22-57.52c-7.04-20.91-10.21-42.36-8.17-64.35
		c2.34-25.22,7.46-49.98,13.42-74.58c2.53-10.43,7.28-19.43,14.72-27.08c5-5.14,9.99-10.3,15.1-15.32c1.67-1.63,2.51-3.28,2.43-5.67
		c-0.17-4.46-0.03-8.93-0.06-13.4c-0.01-1.03-0.19-2.05-0.32-3.29c-1.62,0-2.96,0-4.31,0c-8.66-0.02-17.32,0.14-25.98-0.12
		c-7.7-0.23-15.42-0.59-23.06-1.52c-9.28-1.13-15.54-5.83-17.73-15.66c-1.91-8.55-4.81-16.87-7.35-25.27
		c-0.74-2.45-1.8-4.81-2.6-7.25c-2.34-7.13-2.63-14.32-0.47-21.56c0.89-2.98,1.79-5.96,2.6-8.96c5.18-19.21,11.45-38.03,19.16-56.39
		c12-28.56,25.48-56.43,38.81-84.37c5.41-11.33,10.87-22.74,15.02-34.56c13.46-38.32,30.69-74.77,52.15-109.23
		c9.18-14.74,19.36-28.7,32.09-40.67c14.27-13.42,31.17-21.37,50.46-23.93c15.4-2.05,30.9-3.42,46.37-4.95
		c3.61-0.36,6.94-0.81,8.99-4.3c1.08-1.85,2.86-2.08,4.87-2.18c8.78-0.46,17.58-0.77,26.3-1.79c6.54-0.77,13.07-2.15,19.41-3.94
		c9.1-2.58,15.06-8.73,17.78-17.87c0.54-1.81,1.18-3.62,1.45-5.48c2.21-15.52,4.35-31.06,6.49-46.59c0.36-2.63,0.6-5.28,0.89-7.87
		c-5.66-1.34-7.25-2.56-9.64-7.55c-0.87-1.82-1.7-3.71-2.19-5.66c-0.97-3.79-1.95-7.61-2.47-11.48c-1.08-8.06-1.57-16.16-0.44-24.28
		c0.96-6.87,4.03-10.05,10.88-11.09c1.07-0.16,2.16-0.16,3.23-0.27c2.13-0.21,4.27-0.44,6.47-0.67c0.13-1.21,0.26-2.13,0.31-3.07
		c0.37-7.3,0.41-14.63,1.16-21.89c1.06-10.35,2.32-20.69,4.05-30.95c2.7-16.02,10.84-28.94,23.51-39.08
		c6.28-5.03,13.13-9.02,20.46-12.27c2.42-1.07,4.78-2.29,7.16-3.44c-0.06-0.33-0.13-0.66-0.19-0.99c-1.69-0.07-3.39-0.19-5.08-0.2
		c-47.63-0.11-95.25-0.27-142.88-0.28c-35.72,0-71.44,0.19-107.16,0.33c-12.46,0.05-24.84,0.7-37.12,3.19
		C94.65,26.42,49.07,71.46,34.36,123.3c-2.28,8.03-4.14,16.27-5.2,24.54c-0.96,7.48-0.71,15.13-0.73,22.71
		c-0.25,103.55-0.59,207.11-0.63,310.66c-0.15,334.35-0.23,668.7-0.23,1003.06c0,84.74,0.32,169.48,0.63,254.21
		c0.07,17.59,3.38,34.7,9.46,51.21c10.81,29.34,29.62,52.68,54.47,71.19c26.26,19.56,55.87,29.73,88.73,30.01
		c13.26,0.11,26.52,0.34,39.78,0.35c114.74,0.1,229.47,0.18,344.21,0.23c25.03,0.01,50.06-0.13,75.09-0.25
		c1.49-0.01,3.14,0.44,4.54-0.63c-0.23-0.41-0.3-0.71-0.49-0.85c-1.51-1.13-3.05-2.24-4.58-3.35
		c-11.17-8.13-18.69-18.76-21.39-32.38c-1.12-5.67-1.93-11.56-1.76-17.31C616.59,1824.82,617.7,1812.96,618.55,1800.35z
		 M452.79,715.06c3.76,4.15,6.92,8.75,8.97,13.93c3.19,8.03,6.46,16.07,8.88,24.35c9.92,33.99,19.58,68.06,29.25,102.12
		c4.24,14.95,8.21,29.98,12.51,44.92c0.76,2.65,0.36,4.3-1.73,5.95c-1.8,1.42-3.28,3.23-5.04,4.71c-1.54,1.3-1.92,2.62-1.32,4.61
		c1.5,4.91,2.74,9.9,4.13,14.84c10.37,36.88,18.76,74.19,23.69,112.19c3.47,26.69,6.12,53.48,9.19,80.22
		c1.14,9.95,2.66,19.83,5.46,29.47c4.82,16.57,12.01,32.17,20,47.37c7.11,13.52,15.01,26.62,22.5,39.93
		c9.58,17.03,17.52,34.71,21.98,53.88c6.16,26.49,10.71,53.27,15.22,80.06c4.16,24.66,8.32,49.33,12.34,74.01
		c1.29,7.92,4.06,15.06,9.11,21.37c3.13,3.9,5.91,8.08,8.86,12.13c6.87,9.44,12.57,19.56,17.24,30.25
		c2.23,5.09,3.86,10.36,4.62,15.91c1.03,7.56-0.57,14.8-2.21,22.07c-3.81,16.87-8.39,33.58-10.55,50.8
		c-1.08,8.63-1.55,17.28-0.09,25.9c2.53,14.93,5.15,29.84,7.92,44.73c1.56,8.37,3.32,16.7,8.03,24.08c1.35,2.12,1.94,4.73,2.81,7.14
		c1.77,4.94,1.62,9.86-0.64,14.6c-1.31,2.73-1.33,5.3-0.38,8.19c5.6,17.08,11.22,34.15,16.51,51.33c5,16.23,8.15,32.82,7.57,49.92
		c-0.43,12.48-3.26,24.32-9.67,35.22c-5.88,10.01-13.94,17.87-23.3,24.53c-1.15,0.82-2.26,1.7-3.39,2.55
		c0.99,0.47,1.64,0.45,2.29,0.36c8.73-1.25,17.24-3.45,25.47-6.51c43.61-16.27,74.75-45.67,92.43-88.9
		c6.97-17.04,10.91-34.73,10.65-53.33c-0.22-16.37,0.32-32.76,0.33-49.13c0.11-219.56,0.18-439.12,0.26-658.69c0-0.99,0-1.98,0-2.97
		c-1.23,1.14-1.82,2.31-2.39,3.49c-4.83,10.01-10.24,19.71-17.1,28.47c-32.43,41.44-86.28,61.77-138.41,50.8
		c-36.42-7.66-65.23-27.09-86.32-57.38c-20.82-29.9-28.19-63.43-22.94-99.55c4.14-28.55,16.17-53.4,35.96-74.4
		c16.75-17.76,36.63-30.6,60.08-37.74c2.66-0.81,5.23-1.91,8.34-3.05c-1.71-4.29-3.14-8.19-4.81-11.99
		c-14.45-32.8-30.17-65-46.33-96.97c-7.99-15.82-13.67-32.29-17.4-49.57c-9.66-44.67-18.02-89.58-26.08-134.56
		c-0.64-3.59-1.33-7.18-2.18-10.72c-0.77-3.2-1.46-3.54-4.54-2.3c-2.12,0.85-4.17,1.92-6.19,3.01
		c-13.94,7.53-27.1,16.27-40.18,25.18c-6.99,4.76-12.06,10.72-14.83,18.67c-0.09,0.26-0.18,0.51-0.28,0.76
		c-12.92,32.83-25.7,65.71-38.84,98.44c-3.18,7.93-2.1,15.91-2.51,23.79C443.29,706.63,446.86,709.02,452.79,715.06z M646.04,525.79
		c0.07,12.45,0.07,24.91,0.25,37.36c0.04,2.8,0.48,5.64,1.08,8.39c1.63,7.53,3.69,14.97,5.11,22.54
		c3.66,19.39,7.1,38.83,10.57,58.26c2.22,12.44,5.64,24.45,11.36,35.8c5.48,10.86,10.63,21.89,15.77,32.92
		c8.79,18.83,15.47,38.36,18.76,58.93c1.94,12.15,3.26,24.4,5.32,36.52c1.29,7.57,3.4,15.01,5.2,22.49
		c0.76,3.15,2.72,5.02,5.98,5.86c5.22,1.36,10.32,3.18,15.52,4.61c7.07,1.94,12.51,5.62,14.71,13.02c0.63,2.1,2.18,3.21,4.09,4.17
		c5.06,2.55,10.03,5.3,15.02,7.99c5.13,2.76,7.95,7.28,9.15,12.78c0.8,3.65,2.39,6.83,4.24,10.01c4.14,7.13,8.09,14.36,12.11,21.56
		c0.41,0.73,0.83,1.45,1.24,2.18c0.51-1.54,0.5-2.89,0.51-4.23c0.09-41.15,0.23-82.3,0.26-123.45
		c0.13-153.37,0.31-306.74,0.28-460.1c-0.01-58.07-0.46-116.14-0.86-174.21c-0.07-10.55-0.98-21.01-3.99-31.28
		c-15.56-53.06-48.96-89.35-101.08-108.04c-13.92-4.99-28.27-8.02-43.22-8.02c-28.82,0-57.63-0.4-86.45-0.51
		c-19.89-0.08-39.78,0.02-59.67,0.11c-2.31,0.01-4.74-0.38-7.47,0.98c2.08,0.89,3.68,1.56,5.27,2.26
		c14.16,6.28,27.21,13.95,35.46,27.8c1.4,2.36,3.55,3.96,6.23,4.95c4.03,1.49,7.21,4.24,9.8,7.63c3.81,5,6.68,10.5,8.33,16.57
		c3.28,12.11,2.91,24.39,1.16,36.65c-1.76,12.29-6.04,23.81-11.24,35.01c-1.76,3.78-3.57,7.53-5.37,11.33c1.08,1.28,2,2.44,3,3.54
		c4.14,4.56,5.21,9.77,2.83,15.41c-1.88,4.47-4.02,8.86-6.37,13.1c-3.27,5.91-7.02,11.57-10.25,17.5
		c-2.93,5.37-6.78,9.42-12.88,10.89c-1.75,0.42-2.74,1.46-3.52,3.02c-2.19,4.34-4.48,8.64-6.78,12.93
		c-5.17,9.67-10.59,19.19-17.23,27.94c-4.2,5.54-8.83,10.62-15.29,13.63c-2.09,0.97-3.62,2.58-4.02,4.81
		c-0.66,3.7-1.2,7.45-1.41,11.2c-0.19,3.22,1.48,5.71,4.3,7.31c2.7,1.53,5.46,2.97,8.18,4.46c9.84,5.37,19.74,10.63,29.47,16.18
		c3.5,2,6.6,4.7,9.85,7.12c1.46,1.09,2.58,2.48,2.44,4.43c-0.23,3.34,1.79,4.96,4.3,6.67c14.88,10.09,29.69,20.31,44.45,30.57
		c2.99,2.08,5.78,4.47,8.55,6.85c20.86,18,34.52,40.68,43.12,66.61C641.49,466.75,645.2,495.64,646.04,525.79z M494.62,1921.54
		c-52.77,0-105.54,0-158.31,0c-52.55,0-105.09,0-157.64,0c0,0.19,0,0.39,0,0.58c157.64,0,315.29,0,472.93,0c0-0.19,0-0.39,0-0.58
		C599.56,1921.54,547.5,1921.54,494.62,1921.54z"/>
	<path class="st2" d="M618.52,1800.71c-0.82,12.24-1.93,24.11-2.28,35.99c-0.17,5.76,0.64,11.64,1.76,17.31
		c2.7,13.63,10.23,24.26,21.39,32.38c1.53,1.11,3.07,2.22,4.58,3.35c0.19,0.14,0.27,0.44,0.49,0.85c-1.4,1.07-3.05,0.62-4.54,0.63
		c-25.03,0.12-50.06,0.26-75.09,0.25c-114.74-0.05-229.47-0.13-344.21-0.23c-13.26-0.01-26.52-0.23-39.78-0.35
		c-32.86-0.28-62.47-10.45-88.73-30.01c-24.84-18.51-43.66-41.85-54.47-71.19c-6.08-16.52-9.4-33.63-9.46-51.21
		c-0.32-84.74-0.63-169.48-0.63-254.21c0-334.35,0.08-668.7,0.23-1003.06c0.05-103.55,0.39-207.11,0.63-310.66
		c0.02-7.58-0.23-15.23,0.73-22.71c1.06-8.27,2.92-16.51,5.2-24.54c14.7-51.84,60.29-96.89,117.98-108.59
		c12.27-2.49,24.66-3.14,37.12-3.19c35.72-0.14,71.44-0.33,107.16-0.33c47.63,0,95.25,0.17,142.88,0.28c1.69,0,3.39,0.13,5.08,0.2
		c0.06,0.33,0.13,0.66,0.19,0.99c-2.39,1.15-4.74,2.37-7.16,3.44c-7.33,3.25-14.18,7.25-20.46,12.27
		c-12.67,10.14-20.81,23.06-23.51,39.08c-1.73,10.25-2.99,20.6-4.05,30.95c-0.74,7.26-0.79,14.59-1.16,21.89
		c-0.05,0.93-0.19,1.86-0.31,3.07c-2.2,0.23-4.34,0.46-6.47,0.67c-1.08,0.11-2.17,0.11-3.23,0.27c-6.85,1.04-9.92,4.23-10.88,11.09
		c-1.14,8.12-0.64,16.22,0.44,24.28c0.52,3.87,1.5,7.69,2.47,11.48c0.5,1.95,1.32,3.84,2.19,5.66c2.39,4.99,3.97,6.21,9.64,7.55
		c-0.29,2.59-0.53,5.24-0.89,7.87c-2.14,15.54-4.28,31.07-6.49,46.59c-0.26,1.86-0.91,3.67-1.45,5.48
		c-2.72,9.14-8.68,15.29-17.78,17.87c-6.34,1.8-12.87,3.18-19.41,3.94c-8.72,1.02-17.53,1.33-26.3,1.79
		c-2.02,0.11-3.79,0.33-4.87,2.18c-2.04,3.49-5.37,3.94-8.99,4.3c-15.47,1.53-30.97,2.9-46.37,4.95
		c-19.28,2.57-36.19,10.52-50.46,23.93c-12.73,11.97-22.91,25.93-32.09,40.67c-21.46,34.46-38.69,70.91-52.15,109.23
		c-4.15,11.82-9.61,23.23-15.02,34.56c-13.34,27.94-26.82,55.81-38.81,84.37c-7.71,18.36-13.98,37.18-19.16,56.39
		c-0.81,3-1.71,5.98-2.6,8.96c-2.16,7.24-1.87,14.43,0.47,21.56c0.8,2.44,1.86,4.8,2.6,7.25c2.54,8.4,5.45,16.73,7.35,25.27
		c2.19,9.82,8.46,14.53,17.73,15.66c7.64,0.93,15.36,1.29,23.06,1.52c8.65,0.26,17.32,0.1,25.98,0.12c1.34,0,2.68,0,4.31,0
		c0.12,1.24,0.31,2.27,0.32,3.29c0.03,4.47-0.1,8.94,0.06,13.4c0.09,2.38-0.76,4.03-2.43,5.67c-5.12,5.02-10.1,10.18-15.1,15.32
		c-7.44,7.64-12.19,16.64-14.72,27.08c-5.96,24.6-11.08,49.36-13.42,74.58c-2.04,21.99,1.13,43.43,8.17,64.35
		c6.71,19.93,15.67,38.85,25.22,57.52c6.16,12.04,12.44,24.01,18.63,36.03c10.86,21.06,20.77,42.53,27.04,65.48
		c1.11,4.07,3.02,5.94,7.31,6.46c10.06,1.23,20.03,3.09,30.07,4.49c3.06,0.43,5.01,1.48,6.49,4.42
		c13.51,26.72,29.5,51.99,45.8,77.04c24.21,37.21,49.32,73.79,76.57,108.86c4.4,5.66,9.12,11.07,13.6,16.67
		c2.78,3.48,5.19,7.27,8.1,10.63c4.25,4.89,8.6,9.73,13.27,14.2c15.07,14.39,30.37,28.53,45.46,42.9
		c10.78,10.26,21.18,20.93,32.06,31.09c32.7,30.53,67.32,58.64,105.14,82.67c4.34,2.76,8.82,5.28,13.15,8.04
		c1.19,0.76,2.49,1.81,3.04,3.04c7.15,16.05,14.51,32.01,19.78,49.06c-0.57,0.75-1.12,1.69-1.87,2.42c-5.9,5.75-6.75,12.9-4.8,20.29
		c1.43,5.44,3.55,10.81,6.13,15.81c6.01,11.65,12.5,23.07,18.78,34.58c9.15,16.76,17.49,33.88,22.78,52.33
		c0.26,0.91,0.41,1.86,0.77,2.73c1.64,4.02,1.18,7.91-0.55,11.78c-0.61,1.35-1.09,2.77-1.54,4.18c-1.76,5.58-1.5,11.08,1.68,16.01
		c2.48,3.84,5.43,7.4,8.46,10.84c1.63,1.85,2.39,3.59,2.33,6.11c-0.44,18.55-1.94,37.02-4.01,55.45
		C621.32,1775.88,619.93,1788.11,618.52,1800.71z M219.04,1726.54c-0.29,0.03-0.58,0.06-0.98-0.55c-0.13-0.53-0.29-1.04-0.39-1.58
		c-4.45-24.61-8.9-49.22-13.35-73.83c-7.91-43.77-15.82-87.53-23.74-131.29c-0.62-3.42-1.32-6.83-1.96-10.14
		c-17.63,0-34.89,0-52.13,0c0,94.67,0,189.07,0,283.87c10.89-0.29,21.51,0.45,32.45-0.68c0-36.33,0.29-72.29-0.08-108.26
		c-0.37-35.95-1.4-71.9-2.14-107.85c0.16-0.04,0.32-0.07,0.49-0.11c13.37,72.21,26.74,144.41,40.09,216.49
		c7.7,0.85,45.29,0.52,48.04-0.37c0.84-9.33,0.43-280.26-0.41-283.09c-11.05,0-22.07,0-33.08,0
		C211.17,1581.91,214.53,1654.2,219.04,1726.54z M366.81,1775.77c6.64-8.93,10.5-18.83,10.5-30.08c0.01-19.62,0.04-39.23,0.02-58.85
		c0-1.89-0.11-3.8-0.46-5.65c-1.67-9-5.43-16.94-12.07-23.39c-1.5-1.46-2.93-2.98-4.55-4.64c1.47-1.36,2.56-2.37,3.65-3.38
		c9.03-8.39,13.27-18.85,13.42-31.09c0.19-16.1,0.6-32.2,0.56-48.29c-0.02-7.55-0.18-15.23-1.5-22.63
		c-3.38-18.95-13.99-32.09-33.13-36.81c-6.34-1.56-13.12-1.74-19.71-1.86c-16.09-0.29-32.18-0.17-48.28-0.2
		c-1.04,0-2.08,0.12-3.18,0.19c0,94.77,0,189.25,0,283.74c0.64,0.13,1.02,0.29,1.41,0.28c20.15-0.3,40.3-0.4,60.44-1
		C346.99,1791.72,357.88,1786.18,366.81,1775.77z M407.99,1642.26c-1.37,11.41-2.73,22.83-4.12,34.24
		c-2.05,16.78-4.15,33.55-6.18,50.34c-2.14,17.72-4.23,35.45-6.3,53.19c-0.48,4.13-0.78,8.28-1.19,12.68c12.8,0,25.15,0,37.65,0
		c0.2-1.29,0.43-2.34,0.52-3.39c1.38-16.31,2.74-32.62,4.1-48.94c0.4-4.78,0.4-4.89,5.33-4.94c8.66-0.09,17.32-0.07,25.98-0.08
		c0.91,0,1.83,0.16,3.05,0.28c1.62,19.08,3.22,38.03,4.86,57.37c13.46-0.12,26.37,0.32,39.72-0.77
		c-10.99-94.55-21.94-188.79-32.91-283.15c-18.33,0-36.15,0-54.07,0c-0.24,0.82-0.58,1.57-0.68,2.35
		c-1.96,15.97-3.91,31.95-5.84,47.93c-1.77,14.64-3.53,29.27-5.28,43.91C411.09,1616.01,409.58,1628.77,407.99,1642.26z"/>
	<path class="st3" d="M452.6,714.85c-5.74-5.82-9.31-8.22-16.88-11.31c0.41-7.89-0.67-15.86,2.51-23.79
		c13.14-32.74,25.93-65.61,38.84-98.44c0.1-0.25,0.19-0.51,0.28-0.76c2.77-7.96,7.84-13.91,14.83-18.67
		c13.08-8.91,26.25-17.65,40.18-25.18c2.02-1.09,4.07-2.15,6.19-3.01c3.08-1.24,3.77-0.9,4.54,2.3c0.85,3.55,1.54,7.13,2.18,10.72
		c8.06,44.98,16.42,89.89,26.08,134.56c3.74,17.28,9.41,33.75,17.4,49.57c16.16,31.98,31.88,64.17,46.33,96.97
		c1.67,3.8,3.1,7.7,4.81,11.99c-3.1,1.14-5.68,2.24-8.34,3.05c-23.45,7.14-43.34,19.98-60.08,37.74
		c-19.8,20.99-31.82,45.85-35.96,74.4c-5.24,36.12,2.12,69.64,22.94,99.55c21.09,30.29,49.89,49.72,86.32,57.38
		c52.13,10.97,105.98-9.36,138.41-50.8c6.86-8.76,12.26-18.46,17.1-28.47c0.57-1.18,1.16-2.35,2.39-3.49c0,0.99,0,1.98,0,2.97
		c-0.08,219.56-0.15,439.12-0.26,658.69c-0.01,16.38-0.55,32.76-0.33,49.13c0.25,18.6-3.69,36.29-10.65,53.33
		c-17.68,43.23-48.82,72.63-92.43,88.9c-8.23,3.07-16.74,5.27-25.47,6.51c-0.65,0.09-1.31,0.11-2.29-0.36
		c1.13-0.85,2.24-1.73,3.39-2.55c9.36-6.66,17.41-14.52,23.3-24.53c6.41-10.9,9.24-22.74,9.67-35.22
		c0.58-17.09-2.57-33.68-7.57-49.92c-5.29-17.18-10.91-34.25-16.51-51.33c-0.95-2.89-0.93-5.46,0.38-8.19
		c2.27-4.74,2.41-9.65,0.64-14.6c-0.86-2.41-1.46-5.03-2.81-7.14c-4.71-7.39-6.47-15.71-8.03-24.08
		c-2.77-14.89-5.39-29.8-7.92-44.73c-1.46-8.61-0.99-17.27,0.09-25.9c2.16-17.21,6.74-33.92,10.55-50.8
		c1.64-7.26,3.25-14.51,2.21-22.07c-0.76-5.55-2.39-10.82-4.62-15.91c-4.68-10.69-10.37-20.81-17.24-30.25
		c-2.94-4.05-5.73-8.22-8.86-12.13c-5.05-6.3-7.82-13.45-9.11-21.37c-4.03-24.69-8.19-49.35-12.34-74.01
		c-4.52-26.79-9.06-53.58-15.22-80.06c-4.46-19.17-12.39-36.84-21.98-53.88c-7.49-13.32-15.39-26.42-22.5-39.93
		c-7.99-15.19-15.18-30.8-20-47.37c-2.8-9.64-4.32-19.53-5.46-29.47c-3.06-26.74-5.72-53.53-9.19-80.22
		c-4.94-38-13.32-75.32-23.69-112.19c-1.39-4.94-2.63-9.93-4.13-14.84c-0.61-1.98-0.23-3.31,1.32-4.61
		c1.76-1.48,3.24-3.29,5.04-4.71c2.08-1.65,2.49-3.31,1.73-5.95c-4.29-14.94-8.26-29.97-12.51-44.92
		c-9.67-34.06-19.32-68.13-29.25-102.12c-2.42-8.28-5.69-16.32-8.88-24.35C459.71,723.81,456.55,719.21,452.6,714.85z"/>
	<path class="st4" d="M646.03,525.39c-0.84-29.75-4.54-58.64-13.81-86.61c-8.59-25.93-22.26-48.61-43.12-66.61
		c-2.76-2.38-5.56-4.77-8.55-6.85c-14.77-10.26-29.57-20.48-44.45-30.57c-2.51-1.71-4.54-3.32-4.3-6.67
		c0.14-1.95-0.99-3.34-2.44-4.43c-3.25-2.43-6.35-5.13-9.85-7.12c-9.73-5.56-19.64-10.81-29.47-16.18
		c-2.73-1.49-5.48-2.93-8.18-4.46c-2.82-1.6-4.48-4.08-4.3-7.31c0.22-3.75,0.75-7.5,1.41-11.2c0.4-2.23,1.93-3.83,4.02-4.81
		c6.46-3.01,11.08-8.1,15.29-13.63c6.65-8.75,12.06-18.28,17.23-27.94c2.29-4.29,4.59-8.59,6.78-12.93c0.78-1.55,1.77-2.6,3.52-3.02
		c6.1-1.47,9.95-5.52,12.88-10.89c3.24-5.93,6.98-11.59,10.25-17.5c2.35-4.24,4.49-8.63,6.37-13.1c2.37-5.64,1.31-10.85-2.83-15.41
		c-1-1.1-1.92-2.26-3-3.54c1.8-3.79,3.61-7.55,5.37-11.33c5.2-11.2,9.49-22.73,11.24-35.01c1.75-12.26,2.12-24.54-1.16-36.65
		c-1.64-6.07-4.52-11.58-8.33-16.57c-2.59-3.39-5.76-6.14-9.8-7.63c-2.67-0.99-4.82-2.59-6.23-4.95
		c-8.25-13.86-21.3-21.52-35.46-27.8c-1.58-0.7-3.18-1.37-5.27-2.26c2.73-1.36,5.16-0.97,7.47-0.98
		c19.89-0.08,39.78-0.18,59.67-0.11c28.82,0.11,57.63,0.51,86.45,0.51c14.95,0,29.3,3.03,43.22,8.02
		c52.12,18.69,85.52,54.98,101.08,108.04c3.01,10.28,3.92,20.74,3.99,31.28c0.39,58.07,0.85,116.14,0.86,174.21
		c0.03,153.37-0.15,306.74-0.28,460.1c-0.03,41.15-0.17,82.3-0.26,123.45c0,1.35,0,2.69-0.51,4.23c-0.41-0.73-0.84-1.45-1.24-2.18
		c-4.03-7.19-7.97-14.43-12.11-21.56c-1.85-3.18-3.44-6.36-4.24-10.01c-1.2-5.49-4.02-10.02-9.15-12.78
		c-5-2.69-9.96-5.43-15.02-7.99c-1.91-0.96-3.46-2.06-4.09-4.17c-2.21-7.39-7.64-11.07-14.71-13.02c-5.2-1.43-10.3-3.25-15.52-4.61
		c-3.26-0.85-5.22-2.71-5.98-5.86c-1.8-7.48-3.91-14.92-5.2-22.49c-2.06-12.13-3.38-24.37-5.32-36.52
		c-3.28-20.57-9.97-40.1-18.76-58.93c-5.15-11.02-10.3-22.05-15.77-32.92c-5.72-11.35-9.14-23.36-11.36-35.8
		c-3.47-19.43-6.91-38.87-10.57-58.26c-1.43-7.56-3.49-15.01-5.11-22.54c-0.59-2.75-1.04-5.59-1.08-8.39
		C646.11,550.7,646.11,538.24,646.03,525.39z"/>
	<path class="st6" d="M219.48,1726.44c-4.95-72.24-8.31-144.53-7.64-217.26c11.01,0,22.03,0,33.08,0
		c0.84,2.83,1.25,273.75,0.41,283.09c-2.76,0.89-40.34,1.22-48.04,0.37c-13.35-72.08-26.72-144.29-40.09-216.49
		c-0.16,0.04-0.32,0.07-0.49,0.11c0.74,35.95,1.77,71.89,2.14,107.85c0.37,35.96,0.08,71.93,0.08,108.26
		c-10.94,1.13-21.56,0.38-32.45,0.68c0-94.81,0-189.21,0-283.87c17.24,0,34.49,0,52.13,0c0.64,3.31,1.34,6.72,1.96,10.14
		c7.92,43.76,15.83,87.53,23.74,131.29c4.45,24.61,8.9,49.22,13.35,73.83c0.1,0.53,0.26,1.05,0.4,2.22c0.37,2.37,0.73,4.1,1.1,5.83
		c0.28-0.05,0.56-0.11,0.84-0.16C219.83,1730.35,219.65,1728.4,219.48,1726.44z"/>
	<path class="st7" d="M366.63,1776c-8.75,10.19-19.63,15.72-32.71,16.11c-20.14,0.59-40.29,0.7-60.44,1
		c-0.38,0.01-0.77-0.15-1.41-0.28c0-94.49,0-188.97,0-283.74c1.11-0.07,2.15-0.19,3.18-0.19c16.09,0.03,32.19-0.09,48.28,0.2
		c6.59,0.12,13.37,0.29,19.71,1.86c19.14,4.72,29.75,17.86,33.13,36.81c1.32,7.4,1.48,15.08,1.5,22.63
		c0.04,16.1-0.36,32.2-0.56,48.29c-0.15,12.24-4.38,22.7-13.42,31.09c-1.09,1.01-2.18,2.02-3.65,3.38c1.62,1.66,3.05,3.19,4.55,4.64
		c6.64,6.45,10.4,14.4,12.07,23.39c0.34,1.85,0.45,3.76,0.46,5.65c0.02,19.62-0.02,39.23-0.02,58.85
		C377.3,1756.95,373.44,1766.84,366.63,1776z M313.7,1638.24c5.53-0.28,11.09-0.25,16.57-0.93c5.92-0.73,9.53-5.3,9.53-11.17
		c0-18.4,0.02-36.79-0.06-55.19c-0.02-5-0.22-10.01-0.55-15c-0.36-5.35-3.72-9.03-8.93-10.06c-1.45-0.28-2.95-0.41-4.43-0.42
		c-5.22-0.05-10.45-0.02-16.07-0.02c0.03,30.74-0.08,61.62,0.2,92.57C311.32,1638.12,312.11,1638.18,313.7,1638.24z M328.25,1756.08
		c7.49-1.38,10.86-4.76,11-12.22c0.33-17.99,0.36-35.99,0.45-53.98c0.02-3.11-0.21-6.22-0.45-9.32c-0.38-5.1-3.22-8.58-8.21-9.81
		c-6.88-1.69-13.91-0.95-21.04-1.56c0,29.38,0,58.26,0,87.04C316,1756.22,321.78,1756.22,328.25,1756.08z"/>
	<path class="st6" d="M408.02,1641.9c1.55-13.12,3.06-25.88,4.59-38.64c1.75-14.64,3.51-29.27,5.28-43.91
		c1.93-15.98,3.87-31.95,5.84-47.93c0.1-0.78,0.44-1.53,0.68-2.35c17.92,0,35.74,0,54.07,0c10.97,94.36,21.92,188.6,32.91,283.15
		c-13.35,1.1-26.26,0.66-39.72,0.77c-1.64-19.33-3.25-38.28-4.86-57.37c-1.22-0.12-2.13-0.28-3.05-0.28
		c-8.66,0-17.32-0.02-25.98,0.08c-4.92,0.05-4.93,0.17-5.33,4.94c-1.35,16.31-2.72,32.63-4.1,48.94c-0.09,1.06-0.32,2.1-0.52,3.39
		c-12.5,0-24.84,0-37.65,0c0.41-4.4,0.71-8.55,1.19-12.68c2.07-17.73,4.16-35.46,6.3-53.19c2.03-16.78,4.13-33.56,6.18-50.34
		C405.26,1665.09,406.61,1653.67,408.02,1641.9z M439.04,1658.77c-1.07,14.36-2.66,28.69-3.21,43.36
		c9.62,0.99,18.73,0.85,27.79,0.17c0.82-6.86-12.74-155.02-14.63-160.67c-0.21,0.14-0.6,0.26-0.61,0.42
		C445.27,1580.7,442.17,1619.36,439.04,1658.77z"/>
	<path class="st8" d="M219.26,1726.49c0.39,1.91,0.57,3.86,0.74,5.82c-0.28,0.05-0.56,0.11-0.84,0.16
		c-0.36-1.73-0.73-3.46-1.04-5.51C218.46,1726.6,218.75,1726.57,219.26,1726.49z"/>
	<path class="st2" d="M313.3,1638.24c-1.19-0.06-1.99-0.12-3.35-0.22c-0.28-30.94-0.17-61.82-0.2-92.57
		c5.61,0,10.84-0.03,16.07,0.02c1.48,0.01,2.98,0.14,4.43,0.42c5.22,1.03,8.58,4.71,8.93,10.06c0.33,4.99,0.53,10,0.55,15
		c0.07,18.4,0.06,36.79,0.06,55.19c0,5.87-3.61,10.44-9.53,11.17C324.79,1637.98,319.22,1637.95,313.3,1638.24z"/>
	<path class="st2" d="M327.9,1756.15c-6.12,0.07-11.9,0.07-17.91,0.07c0-28.78,0-57.66,0-87.04c7.14,0.61,14.17-0.12,21.04,1.56
		c5,1.22,7.83,4.7,8.21,9.81c0.23,3.1,0.46,6.22,0.45,9.32c-0.09,18-0.12,35.99-0.45,53.98
		C339.11,1751.32,335.73,1754.7,327.9,1756.15z"/>
	<path class="st2" d="M439.06,1658.39c3.12-39.03,6.21-77.69,9.33-116.35c0.01-0.16,0.4-0.28,0.61-0.42
		c1.89,5.65,15.45,153.81,14.63,160.67c-9.06,0.68-18.17,0.82-27.79-0.17C436.38,1687.46,437.96,1673.13,439.06,1658.39z"/>
</g>
</svg>
